<svg width="25" height="24" viewBox="0 0 25 24" fill="none" xmlns="http://www.w3.org/2000/svg">
<path d="M20.3822 4.88128L19.6463 4.14533C19.4383 3.93734 19.0543 3.96935 18.8143 4.2573L16.2541 6.80126C15.102 6.30532 13.8382 6.06532 12.5101 6.06532C8.55798 6.08126 5.1342 8.38523 3.48608 11.6974C3.39006 11.9054 3.39006 12.1614 3.48608 12.3373C4.25402 13.9054 5.40609 15.2014 6.84609 16.1773L4.7501 18.3053C4.5101 18.5453 4.47809 18.9293 4.63813 19.1373L5.37408 19.8732C5.58207 20.0812 5.96606 20.0492 6.20606 19.7613L20.254 5.71339C20.558 5.47352 20.59 5.08956 20.382 4.88155L20.3822 4.88128ZM13.3581 9.71316C13.0861 9.64914 12.7981 9.56919 12.5261 9.56919C11.1661 9.56919 10.0782 10.6572 10.0782 12.0171C10.0782 12.2891 10.1422 12.5771 10.2221 12.8491L9.15003 13.9051C8.83008 13.3452 8.65409 12.7211 8.65409 12.0172C8.65409 9.88918 10.3661 8.17715 12.4941 8.17715C13.1982 8.17715 13.8221 8.35314 14.3821 8.6731L13.3581 9.71316Z" fill="#1E1E2F"/>
<path d="M21.5327 11.6974C20.9728 10.5773 20.2367 9.56939 19.3248 8.75336L16.3487 11.6974V12.0173C16.3487 14.1453 14.6367 15.8573 12.5087 15.8573H12.1888L10.3008 17.7453C11.0048 17.8893 11.7408 17.9853 12.4608 17.9853C16.4129 17.9853 19.8367 15.6813 21.4848 12.3532C21.6288 12.1291 21.6288 11.9052 21.5328 11.6972L21.5327 11.6974Z" fill="#1E1E2F"/>
</svg>
